<svg width="48" height="48" viewBox="0 0 48 48" fill="none" xmlns="http://www.w3.org/2000/svg">
<path d="M13.4 13.8L9.8 16.7C8.4 17.8 7.5 19.6 7.5 21.4V39.5C7.5 40.6 8.4 41.5 9.5 41.5H29.5" stroke="#10B981" stroke-width="3" stroke-miterlimit="10" stroke-linecap="round" stroke-linejoin="round"/>
<path d="M35 41.5H38.5C39.6 41.5 40.5 40.6 40.5 39.5V21.4C40.5 19.6 39.7001 17.8 38.2001 16.7L24.6 6C24.2 5.7 23.7 5.7 23.4 6L18.8 9.6" stroke="#10B981" stroke-width="3" stroke-miterlimit="10" stroke-linecap="round" stroke-linejoin="round"/>
<path d="M18.5 35.7V27.5C18.5 26.9 18.9 26.5 19.5 26.5H28.4C29 26.5 29.4 26.9 29.4 27.5V41.5" stroke="#10B981" stroke-width="3" stroke-miterlimit="10" stroke-linecap="round" stroke-linejoin="round"/>
</svg>
