<svg width="87" height="147" viewBox="0 0 87 147" fill="none" xmlns="http://www.w3.org/2000/svg">
<path d="M29.7767 12.8834C38.8517 21.3809 38.5067 36.4633 38.5067 36.4633C38.5067 36.4633 23.4317 37.7834 14.3567 29.2859C5.28172 20.7884 5.62672 5.69835 5.62672 5.69835C5.62672 5.69835 20.7017 4.38585 29.7767 12.8834Z" stroke="black" stroke-width="11.25" stroke-linejoin="round"/>
<path d="M63.0405 26.4827C64.638 38.7977 54.7605 50.2277 54.7605 50.2277C54.7605 50.2277 42.288 41.6927 40.683 29.3777C39.0855 17.0477 48.9705 5.62524 48.9705 5.62524C48.9705 5.62524 61.4355 14.1677 63.0405 26.4827ZM74.748 67.8752C69.528 79.1477 55.068 83.5727 55.068 83.5727C55.068 83.5727 49.068 69.7202 54.288 58.4477C59.508 47.1752 73.9755 42.7427 73.9755 42.7427C73.9755 42.7427 79.9755 56.6027 74.748 67.8752Z" stroke="black" stroke-width="11.25" stroke-linejoin="round"/>
<path d="M44.5575 111.129C44.5575 111.129 59.3925 114.084 69.3525 106.636C79.3125 99.1887 80.6325 84.1512 80.6325 84.1512C80.6325 84.1512 65.7975 81.1962 55.8375 88.6437C45.8775 96.0912 44.5575 111.129 44.5575 111.129ZM44.5575 111.129H20.5725C18.6096 111.129 16.6659 111.515 14.8523 112.267C13.0388 113.018 11.391 114.119 10.003 115.507C8.61502 116.895 7.51399 118.543 6.76281 120.356C6.01163 122.17 5.625 124.113 5.625 126.076C5.625 128.039 6.01163 129.983 6.76281 131.796C7.51399 133.61 8.61502 135.258 10.003 136.646C11.391 138.034 13.0388 139.135 14.8523 139.886C16.6659 140.637 18.6096 141.024 20.5725 141.024H35.625" stroke="black" stroke-width="11.25" stroke-linecap="round" stroke-linejoin="round"/>
</svg>
