<svg width="24" height="24" viewBox="0 0 24 24" fill="none" xmlns="http://www.w3.org/2000/svg">
<path d="M11.9999 5C17.2909 5 21.6684 8.914 22.3944 14.0045C22.5109 14.8245 21.8304 15.5 21.0019 15.5H2.99792C2.16942 15.5 1.48842 14.825 1.60542 14.0045C2.33142 8.914 6.70842 5 11.9999 5Z" stroke="black" stroke-width="1.5" stroke-linecap="round" stroke-linejoin="round"/>
<path d="M12 7.5C14.878 7.5 17.3775 9.121 18.635 11.5M12 2V5M14 2H10M21.0725 18.5455C21.6775 18.5535 22.3275 18.757 22.4575 19.3475C22.484 19.467 22.5 19.601 22.5 19.75C22.5 19.899 22.484 20.033 22.4575 20.1525C22.3275 20.743 21.6775 20.9465 21.0725 20.9545C19.708 20.972 16.791 21 12 21C7.209 21 4.292 20.972 2.9275 20.9545C2.3225 20.9465 1.6725 20.743 1.5425 20.1525C1.516 20.033 1.5 19.899 1.5 19.75C1.5 19.601 1.516 19.467 1.5425 19.3475C1.6725 18.757 2.3225 18.5535 2.9275 18.5455C4.292 18.528 7.209 18.5 12 18.5C16.791 18.5 19.708 18.528 21.0725 18.5455Z" stroke="black" stroke-width="1.5" stroke-linecap="round" stroke-linejoin="round"/>
</svg>
