<svg width="30" height="30" viewBox="0 0 30 30" fill="none" xmlns="http://www.w3.org/2000/svg">
<path d="M23.625 7.5C23.375 6.75 22.625 6.25 21.875 6.25H8.125C7.25 6.25 6.625 6.75 6.375 7.5L3.75 15V25C3.75 25.625 4.375 26.25 5 26.25H6.25C7 26.25 7.5 25.625 7.5 25V23.75H22.5V25C22.5 25.625 23.125 26.25 23.75 26.25H25C25.625 26.25 26.25 25.625 26.25 25V15L23.625 7.5ZM8.5 8.75H21.375L22.75 12.5H7.25L8.5 8.75ZM23.75 21.25H6.25V15H23.75V21.25ZM9.375 16.25C10.375 16.25 11.25 17.125 11.25 18.125C11.25 19.125 10.375 20 9.375 20C8.375 20 7.5 19.125 7.5 18.125C7.5 17.125 8.375 16.25 9.375 16.25ZM20.625 16.25C21.625 16.25 22.5 17.125 22.5 18.125C22.5 19.125 21.625 20 20.625 20C19.625 20 18.75 19.125 18.75 18.125C18.75 17.125 19.625 16.25 20.625 16.25Z" fill="#111827"/>
</svg>
