<svg width="24" height="24" viewBox="0 0 24 24" fill="none" xmlns="http://www.w3.org/2000/svg">
<g clip-path="url(#clip0_5_736)">
<path d="M23.25 12.75C23.0511 12.75 22.8604 12.829 22.7197 12.9697C22.5791 13.1103 22.5 13.3011 22.5 13.5V15H18.3104L16.5938 13.2806L21.3132 8.56033C21.5943 8.27905 21.7522 7.89767 21.7522 7.50002C21.7522 7.10236 21.5943 6.72098 21.3132 6.43971L16.0632 1.18971C15.9239 1.05038 15.7585 0.939861 15.5765 0.864458C15.3945 0.789054 15.1994 0.750244 15.0024 0.750244C14.8054 0.750244 14.6103 0.789054 14.4283 0.864458C14.2463 0.939861 14.0809 1.05038 13.9416 1.18971L0.273796 14.9006C0.14299 15.0319 0.0539965 15.1989 0.0180541 15.3807C-0.0178883 15.5624 0.000831651 15.7507 0.0718503 15.9219C0.142869 16.093 0.263001 16.2392 0.417078 16.3421C0.571155 16.445 0.752268 16.5 0.937546 16.5H4.62848L7.93973 19.8103C8.22101 20.0914 8.60239 20.2493 9.00005 20.2493C9.3977 20.2493 9.77908 20.0914 10.0604 19.8103L15.5307 14.3438L17.25 16.0603C17.3888 16.2002 17.554 16.3111 17.7361 16.3866C17.9181 16.4621 18.1133 16.5006 18.3104 16.5H22.5V18C22.5 18.1989 22.5791 18.3897 22.7197 18.5303C22.8604 18.671 23.0511 18.75 23.25 18.75C23.449 18.75 23.6397 18.671 23.7804 18.5303C23.921 18.3897 24 18.1989 24 18V13.5C24 13.3011 23.921 13.1103 23.7804 12.9697C23.6397 12.829 23.449 12.75 23.25 12.75ZM15 2.25002L16.1897 3.43971L4.62848 15H2.29317L15 2.25002ZM9.00005 18.75L6.00005 15.75L17.25 4.50002L20.25 7.50002L9.00005 18.75Z" fill="#111827"/>
</g>
<defs>
<clipPath id="clip0_5_736">
<rect width="24" height="24" fill="white"/>
</clipPath>
</defs>
</svg>
