<svg width="30" height="30" viewBox="0 0 30 30" fill="none" xmlns="http://www.w3.org/2000/svg">
<path d="M25.2212 4.77875C24.8749 4.43245 24.4345 4.19548 23.9547 4.09726C23.475 3.99904 22.9769 4.04389 22.5224 4.22625C16.9612 6.46 12.7824 10.1763 9.37615 15.9225C9.25656 16.1344 9.16855 16.3627 9.1149 16.6C7.3899 16.8688 5.8649 17.7288 4.8124 19.0913C3.6674 20.5725 3.19365 22.46 3.4799 24.4088L3.7499 26.25L5.59115 26.5213C5.95865 26.5746 6.32532 26.6013 6.69115 26.6013C10.1199 26.6013 12.8774 24.215 13.3999 20.8963C13.6387 20.8393 13.8678 20.7475 14.0799 20.6238C19.8274 17.2138 23.5437 13.0375 25.7737 7.4775C25.956 7.023 26.0009 6.52494 25.9026 6.04517C25.8044 5.56539 25.5675 5.12503 25.2212 4.77875ZM6.69115 24.1013C6.45115 24.1004 6.20532 24.0821 5.95365 24.0463C5.5674 21.4163 7.2724 19.2838 9.70365 19.02L10.9799 20.2963C10.7399 22.4963 8.97365 24.1013 6.69115 24.1013ZM12.8037 18.4738L11.5274 17.1975C12.0024 16.3963 12.4949 15.6563 12.9999 14.9425C13.0337 14.9938 15.0487 17.0088 15.0487 17.0088C14.3387 17.51 13.6012 18.0013 12.8037 18.4738ZM16.0637 16.2575C16.0637 16.2575 13.7874 14.0063 13.7149 13.9775C16.3987 10.4975 19.5287 8.12125 23.4537 6.54875C21.8849 10.4575 19.5237 13.5775 16.0637 16.2575Z" fill="#111827"/>
</svg>
