<svg width="42" height="42" viewBox="0 0 42 42" fill="none" xmlns="http://www.w3.org/2000/svg">
<rect width="42" height="42" rx="21" fill="#E5E7EB"/>
<path d="M21 30C22.1819 30 23.3522 29.7672 24.4442 29.3149C25.5361 28.8626 26.5282 28.1997 27.364 27.364C28.1997 26.5282 28.8626 25.5361 29.3149 24.4442C29.7672 23.3522 30 22.1819 30 21C30 19.8181 29.7672 18.6478 29.3149 17.5558C28.8626 16.4639 28.1997 15.4718 27.364 14.636C26.5282 13.8003 25.5361 13.1374 24.4442 12.6851C23.3522 12.2328 22.1819 12 21 12M21 30C19.8181 30 18.6478 29.7672 17.5558 29.3149C16.4639 28.8626 15.4718 28.1997 14.636 27.364C13.8003 26.5282 13.1374 25.5361 12.6851 24.4442C12.2328 23.3522 12 22.1819 12 21C12 19.8181 12.2328 18.6478 12.6851 17.5558C13.1374 16.4639 13.8003 15.4718 14.636 14.636C15.4718 13.8003 16.4639 13.1374 17.5558 12.6851C18.6478 12.2328 19.8181 12 21 12M21 30C23.761 30 24.941 24.837 24.941 21C24.941 17.163 23.761 12 21 12M21 30C18.239 30 17.059 24.837 17.059 21C17.059 17.163 18.239 12 21 12M12.5 18H29.5M12.5 24H29.5" stroke="black" stroke-width="1.5" stroke-linecap="round" stroke-linejoin="round"/>
</svg>
