<svg width="30" height="30" viewBox="0 0 30 30" fill="none" xmlns="http://www.w3.org/2000/svg">
<path d="M27.5 13.75H22.2875L26.3375 9.7L24.575 7.925L18.75 13.75H16.25V11.25L22.075 5.425L20.3 3.6625L16.25 7.7125V2.5H13.75V7.7125L9.7 3.6625L7.925 5.425L13.75 11.25V13.75H11.25L5.425 7.925L3.6625 9.7L7.7125 13.75H2.5V16.25H7.7125L3.6625 20.3L5.425 22.075L11.25 16.25H13.75V18.75L7.925 24.575L9.7 26.3375L13.75 22.2875V27.5H16.25V22.2875L20.3 26.3375L22.075 24.575L16.25 18.75V16.25H18.75L24.575 22.075L26.3375 20.3L22.2875 16.25H27.5V13.75Z" fill="#111827"/>
</svg>
