<svg width="32" height="32" viewBox="0 0 32 32" fill="none" xmlns="http://www.w3.org/2000/svg">
<path d="M18.6665 4.66666H13.3332C8.30517 4.66666 5.7905 4.66666 4.22917 6.22932C2.66784 7.79199 2.6665 10.3053 2.6665 15.3333V16.6667C2.6665 21.6947 2.6665 24.2093 4.22917 25.7707C5.79184 27.332 8.30517 27.3333 13.3332 27.3333H18.6665C23.6945 27.3333 26.2092 27.3333 27.7705 25.7707C29.3318 24.208 29.3332 21.6947 29.3332 16.6667V15.3333C29.3332 10.3053 29.3332 7.79066 27.7705 6.22932C26.2078 4.66799 23.6945 4.66666 18.6665 4.66666Z" stroke="#111827" stroke-width="2" stroke-linejoin="round"/>
<path d="M6.6665 21.3333C8.04784 17.892 13.1945 17.6666 14.6665 21.3333" stroke="#111827" stroke-width="2" stroke-linecap="round"/>
<path d="M12.9997 13C12.9997 13.6188 12.7538 14.2123 12.3163 14.6499C11.8787 15.0875 11.2852 15.3333 10.6663 15.3333C10.0475 15.3333 9.45401 15.0875 9.01643 14.6499C8.57884 14.2123 8.33301 13.6188 8.33301 13C8.33301 12.3812 8.57884 11.7877 9.01643 11.3501C9.45401 10.9125 10.0475 10.6667 10.6663 10.6667C11.2852 10.6667 11.8787 10.9125 12.3163 11.3501C12.7538 11.7877 12.9997 12.3812 12.9997 13Z" stroke="#111827" stroke-width="2"/>
<path d="M18.6665 11.3333H25.3332M18.6665 16H25.3332M18.6665 20.6666H21.9998" stroke="#111827" stroke-width="2" stroke-linecap="round" stroke-linejoin="round"/>
</svg>
