<svg width="33" height="45" viewBox="0 0 33 45" fill="none" xmlns="http://www.w3.org/2000/svg">
<path d="M22.0646 1.87891V9.95329M22.0646 9.95329C20.9939 9.95329 19.967 10.3786 19.2099 11.1358C18.4528 11.8929 18.0274 12.9197 18.0274 13.9905V18.0277M22.0646 9.95329H28.1204C29.3316 9.95329 30.139 9.14585 30.139 7.93469V3.8975C30.139 2.68634 29.3316 1.87891 28.1204 1.87891H7.93445C4.50284 1.87891 1.87866 4.50308 1.87866 7.93469C1.87866 9.14585 2.6861 9.95329 3.89726 9.95329H5.91585C6.98658 9.95329 8.01346 10.3786 8.77058 11.1358C9.5277 11.8929 9.95304 12.9197 9.95304 13.9905V18.0277M9.95304 18.0277H18.0274M9.95304 18.0277L5.31027 22.6704C4.50284 23.4779 3.89726 24.8909 3.89726 26.1021V38.2136C3.89726 39.2844 4.3226 40.3112 5.07972 41.0683C5.83684 41.8255 6.86372 42.2508 7.93445 42.2508H20.046C21.1167 42.2508 22.1436 41.8255 22.9007 41.0683C23.6579 40.3112 24.0832 39.2844 24.0832 38.2136V26.1021C24.0832 24.8909 23.4776 23.4779 22.6702 22.6704L18.0274 18.0277" stroke="black" stroke-width="3.7574" stroke-linecap="round" stroke-linejoin="round"/>
</svg>
