<svg width="39" height="39" viewBox="0 0 39 39" fill="none" xmlns="http://www.w3.org/2000/svg">
<path d="M10.5677 19.2569L18.0154 25.4633L27.9456 13.0505M19.2566 36.6349C16.9745 36.6349 14.7148 36.1854 12.6064 35.312C10.498 34.4387 8.58225 33.1587 6.96855 31.545C5.35486 29.9313 4.07481 28.0155 3.20148 25.9072C2.32816 23.7988 1.87866 21.539 1.87866 19.2569C1.87866 16.9748 2.32816 14.715 3.20148 12.6066C4.07481 10.4982 5.35486 8.58249 6.96855 6.9688C8.58225 5.3551 10.498 4.07505 12.6064 3.20173C14.7148 2.3284 16.9745 1.87891 19.2566 1.87891C23.8656 1.87891 28.2857 3.7098 31.5447 6.9688C34.8037 10.2278 36.6346 14.648 36.6346 19.2569C36.6346 23.8658 34.8037 28.286 31.5447 31.545C28.2857 34.804 23.8656 36.6349 19.2566 36.6349Z" stroke="black" stroke-width="3.7574"/>
</svg>
