<svg width="39" height="39" viewBox="0 0 39 39" fill="none" xmlns="http://www.w3.org/2000/svg">
<path d="M25.6756 38.5134L12.8378 34.0201L2.8885 37.8715C2.17529 38.1568 1.51557 38.0769 0.909343 37.6318C0.303114 37.1868 0 36.5891 0 35.8388V5.88399C0 5.4204 0.134083 5.0103 0.402251 4.6537C0.670418 4.29709 1.03558 4.02964 1.49774 3.85134L12.8378 0L25.6756 4.49323L35.6249 0.641889C36.3381 0.356605 36.9978 0.437198 37.604 0.883668C38.2102 1.33014 38.5134 1.92709 38.5134 2.67454V32.6294C38.5134 33.093 38.38 33.5031 38.1132 33.8597C37.8465 34.2163 37.4806 34.4837 37.0156 34.662L25.6756 38.5134ZM23.5359 33.2713V8.23758L14.9774 5.2421V30.2758L23.5359 33.2713ZM27.8152 33.2713L34.2341 31.1316V5.777L27.8152 8.23758V33.2713ZM4.27926 32.7364L10.6982 30.2758V5.2421L4.27926 7.38173V32.7364Z" fill="black"/>
</svg>
