<svg width="30" height="30" viewBox="0 0 30 30" fill="none" xmlns="http://www.w3.org/2000/svg">
<path d="M5 25C4.3125 25 3.72417 24.7554 3.235 24.2663C2.74583 23.7771 2.50083 23.1883 2.5 22.5V7.5C2.5 6.8125 2.745 6.22417 3.235 5.735C3.725 5.24583 4.31333 5.00083 5 5H25C25.6875 5 26.2763 5.245 26.7663 5.735C27.2563 6.225 27.5008 6.81333 27.5 7.5V22.5C27.5 23.1875 27.2554 23.7763 26.7663 24.2663C26.2771 24.7563 25.6883 25.0008 25 25H5ZM5 22.5H17.5V7.5H5V22.5ZM21.25 11.25H23.75V8.75H21.25V11.25ZM22.5 16.25C22.8542 16.25 23.1512 16.13 23.3912 15.89C23.6312 15.65 23.7508 15.3533 23.75 15C23.7492 14.6467 23.6292 14.35 23.39 14.11C23.1508 13.87 22.8542 13.75 22.5 13.75C22.1458 13.75 21.8492 13.87 21.61 14.11C21.3708 14.35 21.2508 14.6467 21.25 15C21.2492 15.3533 21.3692 15.6504 21.61 15.8913C21.8508 16.1321 22.1475 16.2517 22.5 16.25ZM22.5 21.25C22.8542 21.25 23.1512 21.13 23.3912 20.89C23.6312 20.65 23.7508 20.3533 23.75 20C23.7492 19.6467 23.6292 19.35 23.39 19.11C23.1508 18.87 22.8542 18.75 22.5 18.75C22.1458 18.75 21.8492 18.87 21.61 19.11C21.3708 19.35 21.2508 19.6467 21.25 20C21.2492 20.3533 21.3692 20.6504 21.61 20.8912C21.8508 21.1321 22.1475 21.2517 22.5 21.25ZM12.8125 20C12.3125 20 11.8804 19.9062 11.5163 19.7188C11.1521 19.5312 10.8342 19.3542 10.5625 19.1875C10.3542 19.0417 10.1875 18.9325 10.0625 18.86C9.9375 18.7875 9.8125 18.7508 9.6875 18.75C9.45833 18.75 9.22917 18.8438 9 19.0312C8.77083 19.2188 8.60417 19.375 8.5 19.5L6.71875 17.75C6.94792 17.5 7.31792 17.1875 7.82875 16.8125C8.33958 16.4375 8.95917 16.25 9.6875 16.25C10.1875 16.25 10.62 16.3492 10.985 16.5475C11.35 16.7458 11.6675 16.9279 11.9375 17.0938C12.125 17.2188 12.2917 17.3179 12.4375 17.3913C12.5833 17.4646 12.7083 17.5008 12.8125 17.5C13.0417 17.5 13.2708 17.4062 13.5 17.2188C13.7292 17.0312 13.8958 16.875 14 16.75L15.7812 18.5C15.5521 18.75 15.1825 19.0625 14.6725 19.4375C14.1625 19.8125 13.5425 20 12.8125 20ZM12.8125 13.75C12.3125 13.75 11.8804 13.6562 11.5163 13.4688C11.1521 13.2812 10.8342 13.1042 10.5625 12.9375C10.3542 12.7917 10.1875 12.6825 10.0625 12.61C9.9375 12.5375 9.8125 12.5008 9.6875 12.5C9.45833 12.5 9.22917 12.5938 9 12.7813C8.77083 12.9688 8.60417 13.125 8.5 13.25L6.71875 11.5C6.94792 11.25 7.31792 10.9375 7.82875 10.5625C8.33958 10.1875 8.95917 10 9.6875 10C10.1875 10 10.62 10.0992 10.985 10.2975C11.35 10.4958 11.6675 10.6779 11.9375 10.8438C12.125 10.9688 12.2917 11.0679 12.4375 11.1413C12.5833 11.2146 12.7083 11.2508 12.8125 11.25C13.0417 11.25 13.2708 11.1562 13.5 10.9687C13.7292 10.7812 13.8958 10.625 14 10.5L15.7812 12.25C15.5521 12.5 15.1825 12.8125 14.6725 13.1875C14.1625 13.5625 13.5425 13.75 12.8125 13.75Z" fill="#111827"/>
</svg>
