<svg width="25" height="25" viewBox="0 0 25 25" fill="none" xmlns="http://www.w3.org/2000/svg">
<path d="M12.5 22.5C15.1522 22.5 17.6957 21.4464 19.5711 19.5711C21.4464 17.6957 22.5 15.1522 22.5 12.5C22.5 9.84783 21.4464 7.3043 19.5711 5.42893C17.6957 3.55357 15.1522 2.5 12.5 2.5C9.84783 2.5 7.3043 3.55357 5.42893 5.42893C3.55357 7.3043 2.5 9.84783 2.5 12.5C2.5 15.1522 3.55357 17.6957 5.42893 19.5711C7.3043 21.4464 9.84783 22.5 12.5 22.5ZM12.5 0C14.1415 0 15.767 0.323322 17.2835 0.951506C18.8001 1.57969 20.1781 2.50043 21.3388 3.66117C22.4996 4.8219 23.4203 6.19989 24.0485 7.71646C24.6767 9.23303 25 10.8585 25 12.5C25 15.8152 23.683 18.9946 21.3388 21.3388C18.9946 23.683 15.8152 25 12.5 25C5.5875 25 0 19.375 0 12.5C0 9.18479 1.31696 6.00537 3.66117 3.66117C6.00537 1.31696 9.18479 0 12.5 0ZM13.125 6.25V12.8125L18.75 16.15L17.8125 17.6875L11.25 13.75V6.25H13.125Z" fill="#111827"/>
</svg>
