<svg width="50" height="50" viewBox="0 0 50 50" fill="none" xmlns="http://www.w3.org/2000/svg">
<rect width="49.575" height="49.575" rx="24.7875" fill="#353535"/>
<path d="M22.5 29C20.6833 29 19.146 28.3707 17.888 27.112C16.63 25.8533 16.0007 24.316 16 22.5C15.9993 20.684 16.6287 19.1467 17.888 17.888C19.1473 16.6293 20.6847 16 22.5 16C24.3153 16 25.853 16.6293 27.113 17.888C28.373 19.1467 29.002 20.684 29 22.5C29 23.2333 28.8833 23.925 28.65 24.575C28.4167 25.225 28.1 25.8 27.7 26.3L33.3 31.9C33.4833 32.0833 33.575 32.3167 33.575 32.6C33.575 32.8833 33.4833 33.1167 33.3 33.3C33.1167 33.4833 32.8833 33.575 32.6 33.575C32.3167 33.575 32.0833 33.4833 31.9 33.3L26.3 27.7C25.8 28.1 25.225 28.4167 24.575 28.65C23.925 28.8833 23.2333 29 22.5 29ZM22.5 27C23.75 27 24.8127 26.5627 25.688 25.688C26.5633 24.8133 27.0007 23.7507 27 22.5C26.9993 21.2493 26.562 20.187 25.688 19.313C24.814 18.439 23.7513 18.0013 22.5 18C21.2487 17.9987 20.1863 18.4363 19.313 19.313C18.4397 20.1897 18.002 21.252 18 22.5C17.998 23.748 18.4357 24.8107 19.313 25.688C20.1903 26.5653 21.2527 27.0027 22.5 27Z" fill="white"/>
</svg>
