<svg width="45" height="45" viewBox="0 0 45 45" fill="none" xmlns="http://www.w3.org/2000/svg">
<path d="M40.3865 7.93758C41.5821 9.87232 42.2707 12.1504 42.2707 14.588C42.2707 21.608 36.5554 27.2991 29.5071 27.2991C28.2227 27.2991 25.2943 27.0042 23.8705 25.8208L22.0893 27.5939C20.6049 29.0723 21.7924 29.0722 22.3862 30.2537C22.3862 30.2537 23.8705 32.3237 22.3862 34.3938C21.4955 35.5752 19.0014 37.2292 16.1538 34.3938L15.56 34.9835C15.56 34.9835 17.3393 37.0535 15.8569 39.1236C14.9663 40.305 12.5913 41.4865 10.5132 39.4184L8.43707 41.4865C7.01126 42.9062 5.2704 42.0782 4.57971 41.4865L2.79644 39.7133C1.13434 38.0573 2.10373 36.2639 2.79644 35.5732L18.2299 20.2044C18.2299 20.2044 16.7455 17.8415 16.7455 14.59C16.7455 7.57002 22.4609 1.87891 29.5091 1.87891C31.1632 1.87891 32.7424 2.19194 34.1925 2.76145" stroke="black" stroke-width="3.7574" stroke-linecap="round" stroke-linejoin="round"/>
<path d="M33.9582 14.5912C33.9555 15.7692 33.4851 16.898 32.6504 17.7292C31.8157 18.5605 30.6851 19.0263 29.5071 19.0241C28.9236 19.0255 28.3456 18.9119 27.806 18.6898C27.2665 18.4677 26.7759 18.1416 26.3624 17.7299C25.9489 17.3183 25.6205 16.8293 25.396 16.2907C25.1715 15.7522 25.0553 15.1747 25.054 14.5912C25.055 14.0076 25.1711 13.4299 25.3954 12.8911C25.6198 12.3523 25.9482 11.863 26.3617 11.4512C26.7752 11.0393 27.2659 10.713 27.8056 10.4908C28.3453 10.2686 28.9234 10.1549 29.5071 10.1563C30.0905 10.1552 30.6685 10.2691 31.208 10.4914C31.7474 10.7137 32.2378 11.0401 32.6511 11.4519C33.0645 11.8637 33.3926 12.3529 33.6169 12.8916C33.8412 13.4302 33.9571 14.0077 33.9582 14.5912Z" stroke="black" stroke-width="3.7574"/>
</svg>
