<svg width="41" height="41" viewBox="0 0 41 41" fill="none" xmlns="http://www.w3.org/2000/svg">
<path d="M39.2005 19.3478L21.0241 1.17137C20.2668 0.420238 19.2431 -0.000849897 18.1764 1.28793e-06H4.03921C2.96794 1.28793e-06 1.94055 0.425559 1.18306 1.18306C0.425559 1.94055 1.26817e-06 2.96794 1.26817e-06 4.03921V18.1764C-0.00042107 18.7094 0.104649 19.2372 0.309156 19.7294C0.513662 20.2216 0.813561 20.6685 1.19157 21.0443L19.368 39.2207C20.1253 39.9718 21.149 40.3929 22.2156 40.3921C23.2852 40.3875 24.3093 39.959 25.0633 39.2005L39.2005 25.0633C39.959 24.3093 40.3875 23.2852 40.3921 22.2156C40.3925 21.6826 40.2874 21.1548 40.0829 20.6626C39.8784 20.1704 39.5785 19.7236 39.2005 19.3478ZM22.2156 36.3529L4.03921 18.1764V4.03921H18.1764L36.3529 22.2156M9.08821 6.05881C9.68737 6.05881 10.2731 6.23648 10.7713 6.56936C11.2694 6.90223 11.6577 7.37536 11.887 7.92891C12.1163 8.48246 12.1763 9.09157 12.0594 9.67922C11.9425 10.2669 11.654 10.8067 11.2303 11.2303C10.8067 11.654 10.2669 11.9425 9.67922 12.0594C9.09157 12.1763 8.48246 12.1163 7.92891 11.887C7.37536 11.6577 6.90223 11.2694 6.56936 10.7713C6.23648 10.2731 6.05881 9.68737 6.05881 9.08821C6.05881 8.28477 6.37798 7.51423 6.9461 6.9461C7.51423 6.37798 8.28477 6.05881 9.08821 6.05881Z" fill="black"/>
</svg>
