<svg width="18" height="25" viewBox="0 0 18 25" fill="none" xmlns="http://www.w3.org/2000/svg">
<path d="M15.072 18.8495C15.8799 18.8495 16.5701 19.1362 17.1426 19.7097C17.7142 20.284 18 20.9765 18 21.7871C18 22.5977 17.7138 23.2901 17.1413 23.8645C16.5688 24.4388 15.8786 24.726 15.0707 24.726C14.3905 24.726 13.78 24.5139 13.239 24.0897C12.6981 23.6656 12.3698 23.1176 12.2543 22.4457H2.75337L1.15545 25L0 24.2926L6.11204 14.8158C4.68787 14.3109 3.51448 13.513 2.59187 12.4223C1.66927 11.3315 1.08236 10.0621 0.831133 8.61392H16.2839C16.0309 10.063 15.4475 11.3324 14.5337 12.4223C13.6198 13.5121 12.4508 14.31 11.0266 14.8158L13.2207 18.3067C12.9799 18.4411 12.7874 18.5632 12.6429 18.6729C12.4985 18.7827 12.3361 18.9342 12.1558 19.1274L9.68079 15.1346C9.53899 15.1785 9.36567 15.2005 9.16084 15.2005H7.97914C7.79007 15.2005 7.62506 15.1785 7.48413 15.1346L3.60289 21.1284H12.2543C12.3698 20.4557 12.6981 19.9077 13.239 19.4844C13.78 19.0602 14.3905 18.8481 15.0707 18.8481M15.0707 23.4087C15.5276 23.4087 15.9114 23.2528 16.2222 22.941C16.5329 22.6293 16.6879 22.2446 16.687 21.7871C16.6861 21.3295 16.5312 20.9449 16.2222 20.6331C15.9132 20.3213 15.5298 20.1655 15.072 20.1655C14.6142 20.1655 14.2308 20.3213 13.9218 20.6331C13.6128 20.9449 13.4574 21.3295 13.4557 21.7871C13.4539 22.2446 13.6093 22.6293 13.9218 22.941C14.2343 23.2528 14.6164 23.4087 15.0707 23.4087ZM8.55686 13.9082C9.90401 13.9082 11.1146 13.5376 12.1886 12.7964C13.2627 12.0552 14.0654 11.1001 14.5967 9.93124H2.51703C3.05274 11.0993 3.85674 12.0543 4.92903 12.7964C6.00131 13.5385 7.21059 13.9091 8.55686 13.9082ZM5.4713 6.28359C5.56408 5.68026 5.54745 5.15904 5.4214 4.71994C5.29535 4.28083 5.02838 3.80967 4.62047 3.30646C4.1828 2.73562 3.897 2.20475 3.76308 1.71383C3.62915 1.22379 3.61689 0.652949 3.72631 0.00131722H4.38281C4.2909 0.603769 4.30754 1.12323 4.43271 1.5597C4.55788 1.99617 4.82486 2.46601 5.23364 2.96923C5.67656 3.54006 5.96367 4.07094 6.09497 4.56186C6.22627 5.05278 6.23722 5.62669 6.1278 6.28359H5.4713ZM8.72755 6.28359C8.82121 5.68026 8.80633 5.15904 8.68291 4.71994C8.56036 4.28083 8.2947 3.80967 7.88591 3.30646C7.44299 2.74089 7.15413 2.21265 7.01933 1.72173C6.88628 1.23081 6.87446 0.656901 6.98388 0H7.64038C7.5476 0.60333 7.56423 1.12323 7.69028 1.5597C7.81545 1.99617 8.08243 2.46601 8.49121 2.96923C8.92888 3.5348 9.21468 4.06304 9.3486 4.55396C9.48253 5.04488 9.49478 5.62142 9.38537 6.28359H8.72755ZM12.0363 6.28359C12.1291 5.68026 12.1142 5.15904 11.9917 4.71994C11.8691 4.28083 11.603 3.80967 11.1934 3.30646C10.7505 2.74089 10.462 2.21265 10.3281 1.72173C10.1942 1.23081 10.1819 0.656901 10.2913 0H10.9478C10.8559 0.60333 10.8726 1.12323 10.9977 1.5597C11.1229 1.99617 11.3899 2.46601 11.7987 2.96923C12.2363 3.5348 12.5221 4.06304 12.6561 4.55396C12.79 5.04488 12.8022 5.62142 12.6928 6.28359H12.0363Z" fill="black"/>
</svg>
