<svg width="32" height="32" viewBox="0 0 32 32" fill="none" xmlns="http://www.w3.org/2000/svg">
<path d="M9.86659 9.33325H6.13325C5.92108 9.33325 5.7176 9.41754 5.56757 9.56757C5.41754 9.7176 5.33325 9.92108 5.33325 10.1333V21.8666C5.33325 21.9716 5.35394 22.0757 5.39415 22.1727C5.43435 22.2698 5.49328 22.358 5.56757 22.4323C5.64185 22.5066 5.73004 22.5655 5.82711 22.6057C5.92417 22.6459 6.02819 22.6666 6.13325 22.6666H9.86659C9.97164 22.6666 10.0757 22.6459 10.1727 22.6057C10.2698 22.5655 10.358 22.5066 10.4323 22.4323C10.5066 22.358 10.5655 22.2698 10.6057 22.1727C10.6459 22.0757 10.6666 21.9716 10.6666 21.8666V10.1333C10.6666 9.92108 10.5823 9.7176 10.4323 9.56757C10.2822 9.41754 10.0788 9.33325 9.86659 9.33325ZM25.8666 9.33325H22.1333C21.9211 9.33325 21.7176 9.41754 21.5676 9.56757C21.4175 9.7176 21.3333 9.92108 21.3333 10.1333V21.8666C21.3333 21.9716 21.3539 22.0757 21.3941 22.1727C21.4344 22.2698 21.4933 22.358 21.5676 22.4323C21.6419 22.5066 21.73 22.5655 21.8271 22.6057C21.9242 22.6459 22.0282 22.6666 22.1333 22.6666H25.8666C25.9716 22.6666 26.0757 22.6459 26.1727 22.6057C26.2698 22.5655 26.358 22.5066 26.4323 22.4323C26.5066 22.358 26.5655 22.2698 26.6057 22.1727C26.6459 22.0757 26.6666 21.9716 26.6666 21.8666V10.1333C26.6666 9.92108 26.5823 9.7176 26.4323 9.56757C26.2822 9.41754 26.0788 9.33325 25.8666 9.33325Z" stroke="#111827" stroke-width="1.5" stroke-linecap="round" stroke-linejoin="round"/>
<path d="M10.6666 16H21.3333M1.33325 19.2V12.8C1.33325 12.5878 1.41754 12.3843 1.56757 12.2343C1.7176 12.0843 1.92108 12 2.13325 12H4.53325C4.74543 12 4.94891 12.0843 5.09894 12.2343C5.24897 12.3843 5.33325 12.5878 5.33325 12.8V19.2C5.33325 19.4122 5.24897 19.6157 5.09894 19.7657C4.94891 19.9157 4.74543 20 4.53325 20H2.13325C1.92108 20 1.7176 19.9157 1.56757 19.7657C1.41754 19.6157 1.33325 19.4122 1.33325 19.2ZM30.6666 19.2V12.8C30.6666 12.5878 30.5823 12.3843 30.4323 12.2343C30.2822 12.0843 30.0788 12 29.8666 12H27.4666C27.2544 12 27.0509 12.0843 26.9009 12.2343C26.7509 12.3843 26.6666 12.5878 26.6666 12.8V19.2C26.6666 19.4122 26.7509 19.6157 26.9009 19.7657C27.0509 19.9157 27.2544 20 27.4666 20H29.8666C30.0788 20 30.2822 19.9157 30.4323 19.7657C30.5823 19.6157 30.6666 19.4122 30.6666 19.2Z" stroke="#111827" stroke-width="1.5" stroke-linecap="round" stroke-linejoin="round"/>
</svg>
