<svg width="30" height="30" viewBox="0 0 30 30" fill="none" xmlns="http://www.w3.org/2000/svg">
<path d="M10 12.5C11.3807 12.5 12.5 11.3807 12.5 10C12.5 8.61929 11.3807 7.5 10 7.5C8.61929 7.5 7.5 8.61929 7.5 10C7.5 11.3807 8.61929 12.5 10 12.5Z" stroke="#111827" stroke-width="2" stroke-linecap="round" stroke-linejoin="round"/>
<path d="M22.5 13.75C22.5 13.75 13.75 17.5 10 17.5C8.01088 17.5 6.10322 16.7098 4.6967 15.3033C3.29018 13.8968 2.5 11.9891 2.5 10C2.5 8.01088 3.29018 6.10322 4.6967 4.6967C6.10322 3.29018 8.01088 2.5 10 2.5C13.75 2.5 22.5 6.25 22.5 6.25M22.5 13.75V6.25M22.5 13.75L27.5 16.25V3.75L22.5 6.25" stroke="#111827" stroke-width="2" stroke-linecap="round" stroke-linejoin="round"/>
<path d="M8.75 17.375L9.75 23.75C9.875 24.375 10.5 25 11.25 25H13.75C14.5 25 14.875 24.5 14.75 23.75L13.625 16.875M14.55 22.5C14.55 22.5 18.675 20 23.675 20C24.338 20 24.9739 20.2634 25.4428 20.7322C25.9116 21.2011 26.175 21.837 26.175 22.5C26.175 23.163 25.9116 23.7989 25.4428 24.2678C24.9739 24.7366 24.338 25 23.675 25H21.25C20.587 25 19.9511 25.2634 19.4822 25.7322C19.0134 26.2011 18.75 26.837 18.75 27.5" stroke="#111827" stroke-width="2" stroke-linecap="round" stroke-linejoin="round"/>
</svg>
