<svg width="18" height="17" viewBox="0 0 18 17" fill="none" xmlns="http://www.w3.org/2000/svg">
<path d="M17.8254 10.0346C17.6179 9.27048 17.2316 8.56488 16.6976 7.9743C16.1637 7.38372 15.4968 6.92456 14.7504 6.6336C14.004 6.34264 13.1988 6.22796 12.3994 6.29874C11.5999 6.36952 10.8284 6.6238 10.1466 7.04121L11.5509 1.51549C11.5858 1.3782 11.576 1.2336 11.5229 1.10209C11.4699 0.970586 11.3763 0.858815 11.2553 0.782556C10.6723 0.419766 10.0212 0.176255 9.34079 0.0665128C8.66035 -0.0432293 7.96446 -0.0169599 7.29453 0.143758C6.6246 0.304476 5.99432 0.596358 5.44119 1.00204C4.88807 1.40771 4.4234 1.9189 4.07484 2.50517C3.72628 3.09144 3.50095 3.74082 3.41226 4.41467C3.32357 5.08852 3.37333 5.77306 3.55858 6.42757C3.74383 7.08208 4.06078 7.69318 4.49058 8.2245C4.92038 8.75582 5.45424 9.19652 6.06039 9.52035L0.502176 11.085C0.36409 11.1238 0.24184 11.2043 0.152674 11.3152C0.0635088 11.4261 0.0119306 11.5618 0.00521746 11.7031C-0.0475362 12.8565 0.301024 13.993 0.993178 14.9245C1.68533 15.856 2.67956 16.5266 3.81123 16.8252C4.24771 16.9407 4.69765 16.9995 5.14959 17C5.83827 16.9982 6.51958 16.8602 7.15316 16.5942C7.78675 16.3282 8.35972 15.9396 8.83815 15.4515C9.31658 14.9633 9.69073 14.3854 9.93844 13.7522C10.1862 13.1189 10.3024 12.4431 10.2803 11.7648L14.4341 15.7267C14.5374 15.8251 14.6695 15.8891 14.8118 15.9096C14.954 15.9301 15.0991 15.9059 15.2267 15.8406C16.266 15.3092 17.0902 14.444 17.5627 13.3883C18.0353 12.3325 18.128 11.1493 17.8254 10.0346ZM7.45788 9.44351C7.45788 9.1763 7.53828 8.9151 7.68892 8.69292C7.83956 8.47074 8.05366 8.29758 8.30417 8.19532C8.55467 8.09307 8.83031 8.06631 9.09625 8.11844C9.36218 8.17057 9.60645 8.29924 9.79818 8.48819C9.98991 8.67713 10.1205 8.91786 10.1734 9.17994C10.2263 9.44201 10.1991 9.71366 10.0954 9.96053C9.9916 10.2074 9.81588 10.4184 9.59044 10.5669C9.36499 10.7153 9.09994 10.7945 8.82879 10.7945C8.4652 10.7945 8.11651 10.6522 7.85941 10.3988C7.60231 10.1455 7.45788 9.80183 7.45788 9.44351ZM4.71604 5.05266C4.71582 4.42662 4.87613 3.81068 5.18208 3.26203C5.48803 2.71338 5.9297 2.24981 6.46607 1.91438C7.00244 1.57894 7.61613 1.38252 8.25014 1.34334C8.88414 1.30416 9.51792 1.4235 10.0926 1.69028L8.80909 6.74145C8.31796 6.74508 7.83685 6.87865 7.41602 7.12819C6.99519 7.37774 6.65011 7.7341 6.41683 8.16003C5.89323 7.82259 5.46343 7.36163 5.16642 6.81899C4.86941 6.27635 4.7146 5.66921 4.71604 5.05266ZM7.02946 15.1491C6.47944 15.4623 5.85804 15.6334 5.22295 15.6467C4.58785 15.6599 3.95967 15.5147 3.39672 15.2247C2.83377 14.9347 2.35431 14.5092 2.00286 13.9877C1.65141 13.4662 1.43937 12.8657 1.38642 12.2418L6.46824 10.8114C6.70985 11.217 7.05471 11.5535 7.46872 11.7875C7.88273 12.0215 8.35154 12.1449 8.82879 12.1456H8.90676C8.87228 12.7606 8.68251 13.3575 8.35469 13.882C8.02686 14.4065 7.57134 14.842 7.02946 15.1491ZM16.1264 13.207C15.8491 13.6811 15.4687 14.0889 15.0125 14.401L11.2151 10.7793C11.4581 10.3587 11.5816 9.88135 11.5727 9.39741C11.5638 8.91347 11.4228 8.44083 11.1645 8.02915C11.8895 7.66846 12.7133 7.54814 13.5134 7.68611C14.3134 7.82408 15.0468 8.21297 15.6044 8.79487C16.162 9.37677 16.5141 10.1206 16.6081 10.9156C16.7022 11.7106 16.5332 12.5143 16.1264 13.207Z" fill="black"/>
</svg>
